<svg version="1.1" xmlns="http://www.w3.org/2000/svg" xmlns:xlink="http://www.w3.org/1999/xlink" width="1030.79914" height="918.48185" viewBox="0,0,1030.79914,918.48185"><defs><radialGradient cx="240.00001" cy="180.00001" r="51.875" gradientUnits="userSpaceOnUse" id="color-1"><stop offset="0" stop-color="#ffffff"/><stop offset="1" stop-color="#ffffff" stop-opacity="0"/></radialGradient></defs><g transform="translate(225.09343,245.2296)"><g data-paper-data="{&quot;isPaintingLayer&quot;:true}" fill-rule="nonzero" stroke="none" stroke-width="0" stroke-linecap="butt" stroke-linejoin="miter" stroke-miterlimit="10" stroke-dasharray="" stroke-dashoffset="0" style="mix-blend-mode: normal"><path d="M216.37501,180.00001c0,-13.04773 10.57727,-23.625 23.625,-23.625c13.04773,0 23.625,10.57727 23.625,23.625c0,13.04773 -10.57727,23.625 -23.625,23.625c-13.04773,0 -23.625,-10.57727 -23.625,-23.625z" fill="#ffffff"/><path d="M188.12501,180.00001c0,-28.64977 23.22523,-51.875 51.875,-51.875c28.64977,0 51.875,23.22523 51.875,51.875c0,28.64977 -23.22523,51.875 -51.875,51.875c-28.64977,0 -51.875,-23.22523 -51.875,-51.875z" fill="url(#color-1)"/><path d="M254.65467,189.00902l1.5015,-19.51952l548.04805,-19.51952l1.5015,45.04505z" fill="#ffffff"/><path d="M238.00709,166.90804l-12.91106,14.71634l-450.18945,-313.15672l25.82119,-36.94018z" fill="#ffffff"/><path d="M241.8708,193.04483l9.73551,3.59365l-80.48567,476.61377l-24.78489,-10.53702z" fill="#ffffff"/><path d="M252.96318,189.0143l2.35199,-2.06568l360.34171,292.28649l-7.02904,4.5043z" fill="#ffffff"/><path d="M258.70791,168.32138l-13.23719,-8.61036l281.68113,-404.94061l33.22729,23.22589z" data-paper-data="{&quot;index&quot;:null}" fill="#ffffff"/><path d="M244.38591,173.08475l8.33197,13.41416l-426.90696,247.1267l-20.23012,-35.13171z" fill="#ffffff"/></g></g></svg>